<svg xmlns="http://www.w3.org/2000/svg" version="1.1" xmlns:xlink="http://www.w3.org/1999/xlink" xmlns:svgjs="http://svgjs.dev/svgjs" width="1440" height="560" preserveAspectRatio="none" viewBox="0 0 1440 560"><g mask="url(&quot;#SvgjsMask1259&quot;)" fill="none"><rect width="1440" height="560" x="0" y="0" fill="rgba(255, 255, 255, 1)"></rect><path d="M1198.137,629.354C1239.572,628.624,1282.084,616.247,1303.455,580.742C1325.41,544.267,1321.39,497.915,1299.076,461.659C1277.81,427.107,1238.69,408.369,1198.137,409.621C1159.703,410.807,1128.166,435.184,1107.441,467.573C1084.543,503.357,1065.412,547.514,1086.186,584.571C1107.251,622.146,1155.067,630.113,1198.137,629.354" fill="rgba(57, 142, 255, 1)" class="triangle-float2"></path><path d="M441.637,444.135C483.215,444.585,521.308,418.804,539.752,381.539C556.471,347.76,544.767,308.812,524.269,277.184C505.794,248.678,475.602,229.613,441.637,230.149C408.551,230.671,381.095,251.761,363.398,279.721C344.091,310.225,331.624,346.854,347.136,379.452C364.716,416.395,400.726,443.692,441.637,444.135" fill="rgba(57, 142, 255, 1)" class="triangle-float3"></path><path d="M164.833,641.122C222.089,645.617,280.293,618.529,308.149,568.305C335.335,519.29,319.722,460.856,291.758,412.281C263.719,363.575,221.013,317.845,164.833,319.357C110.367,320.823,72.619,369.605,49.212,418.807C29.282,460.702,34.419,507.337,55.826,548.497C79.406,593.837,113.885,637.122,164.833,641.122" fill="rgba(57, 142, 255, 1)" class="triangle-float1"></path><path d="M639.189,395.512C662.414,395.066,682.921,380.34,693.392,359.605C702.94,340.698,698.836,318.282,687.093,300.654C676.617,284.928,658.063,279.15,639.189,278.237C618.041,277.214,594.592,278.198,582.525,295.596C569.051,315.022,569.595,341.193,581.258,361.758C593.075,382.595,615.239,395.972,639.189,395.512" fill="rgba(57, 142, 255, 1)" class="triangle-float3"></path><path d="M1296.237,486.006C1343.345,485.235,1376.002,444.118,1398.473,402.708C1419.668,363.65,1429.565,317.986,1408.707,278.747C1386.635,237.225,1343.257,209.731,1296.237,210.374C1250.21,211.004,1211.238,241.465,1188.972,281.752C1167.473,320.651,1167.371,366.803,1188.035,406.152C1210.373,448.687,1248.199,486.792,1296.237,486.006" fill="rgba(57, 142, 255, 1)" class="triangle-float1"></path><path d="M741.594,383.855C763.101,384.583,786.263,381.826,798.504,364.128C812.305,344.173,813.908,317.532,802.137,296.316C790.037,274.506,766.448,259.459,741.594,261.552C719.239,263.435,706.68,285.242,696.464,305.215C687.428,322.881,681.114,343.276,690.991,360.486C700.903,377.757,721.692,383.181,741.594,383.855" fill="rgba(57, 142, 255, 1)" class="triangle-float3"></path><path d="M124.284,202.401C172.936,201.686,229.301,202.802,253.993,160.876C278.889,118.604,253.319,68.131,228.168,26.011C203.886,-14.654,171.625,-54.906,124.284,-56.351C74.982,-57.856,34.707,-22.66,8.801,19.314C-18.779,64,-40.217,120.373,-12.202,164.788C14.782,207.568,73.71,203.144,124.284,202.401" fill="rgba(57, 142, 255, 1)" class="triangle-float2"></path><path d="M84.552,169.651C110.514,169.366,134.586,155.764,147.422,133.195C160.117,110.874,158.607,83.788,146.159,61.328C133.288,38.103,111.099,20.32,84.552,19.752C57.091,19.164,31.78,34.713,18.202,58.589C4.776,82.199,5.312,111.288,19.241,134.604C32.822,157.337,58.073,169.942,84.552,169.651" fill="rgba(57, 142, 255, 1)" class="triangle-float1"></path><path d="M1295.003,255.688C1324.674,254.53,1349.335,236.471,1365.395,211.495C1383.21,183.79,1396.915,150.01,1381.766,120.761C1365.693,89.728,1329.942,76.387,1295.003,75.584C1258.384,74.742,1219.141,84.761,1201.041,116.605C1183.092,148.182,1194.067,187.292,1214.4,217.389C1232.248,243.807,1263.145,256.932,1295.003,255.688" fill="rgba(57, 142, 255, 1)" class="triangle-float1"></path><path d="M1190.805,225.957C1209.55,225.1,1227.798,217.953,1237.485,201.882C1247.479,185.301,1247.836,164.357,1237.978,147.695C1228.29,131.32,1209.828,123.308,1190.805,122.981C1171.117,122.643,1151.526,129.552,1140.738,146.025C1128.863,164.158,1124.591,188.147,1136.097,206.516C1147.108,224.095,1170.084,226.904,1190.805,225.957" fill="rgba(57, 142, 255, 1)" class="triangle-float2"></path></g><defs><mask id="SvgjsMask1259"><rect width="1440" height="560" fill="#ffffff"></rect></mask><style>
                @keyframes float1 {
                    0%{transform: translate(0, 0)}
                    50%{transform: translate(-10px, 0)}
                    100%{transform: translate(0, 0)}
                }

                .triangle-float1 {
                    animation: float1 5s infinite;
                }

                @keyframes float2 {
                    0%{transform: translate(0, 0)}
                    50%{transform: translate(-5px, -5px)}
                    100%{transform: translate(0, 0)}
                }

                .triangle-float2 {
                    animation: float2 4s infinite;
                }

                @keyframes float3 {
                    0%{transform: translate(0, 0)}
                    50%{transform: translate(0, -10px)}
                    100%{transform: translate(0, 0)}
                }

                .triangle-float3 {
                    animation: float3 6s infinite;
                }
            </style></defs></svg>