<svg xmlns="http://www.w3.org/2000/svg" version="1.1" xmlns:xlink="http://www.w3.org/1999/xlink" xmlns:svgjs="http://svgjs.dev/svgjs" width="1440" height="560" preserveAspectRatio="none" viewBox="0 0 1440 560"><g mask="url(&quot;#SvgjsMask1095&quot;)" fill="none"><rect width="1440" height="560" x="0" y="0" fill="rgba(255, 255, 255, 1)"></rect><path d="M 0,76 C 41.2,113 123.6,252.2 206,261 C 288.4,269.8 329.6,118.2 412,120 C 494.4,121.8 535.6,273.6 618,270 C 700.4,266.4 741.6,110.8 824,102 C 906.4,93.2 947.6,244.6 1030,226 C 1112.4,207.4 1154,1 1236,9 C 1318,17 1399.2,214.6 1440,266L1440 560L0 560z" fill="rgba(88, 165, 245, 1)"></path><path d="M 0,471 C 36,456 108,381.4 180,396 C 252,410.6 288,564.2 360,544 C 432,523.8 468,295 540,295 C 612,295 648,522.2 720,544 C 792,565.8 828,426.8 900,404 C 972,381.2 1008,427.8 1080,430 C 1152,432.2 1188,409.8 1260,415 C 1332,420.2 1404,447.8 1440,456L1440 560L0 560z" fill="rgba(191, 222, 255, 1)"></path></g><defs><mask id="SvgjsMask1095"><rect width="1440" height="560" fill="#ffffff"></rect></mask></defs></svg>